<svg width="22" height="22" viewBox="0 0 22 22" fill="none" xmlns="http://www.w3.org/2000/svg">
<path d="M11.99 17.5175L14.3 16.1425L16.61 17.5175L16.005 14.905L18.0125 13.145L15.345 12.925L14.3 10.45L13.255 12.925L10.5875 13.145L12.595 14.905L11.99 17.5175ZM4.95 13.75V15.4H1.65C1.19625 15.4 0.807813 15.2384 0.484688 14.9153C0.161563 14.5922 0 14.2037 0 13.75V1.65C0 1.19625 0.161563 0.807813 0.484688 0.484688C0.807813 0.161563 1.19625 0 1.65 0H13.75C14.2037 0 14.5922 0.161563 14.9153 0.484688C15.2384 0.807813 15.4 1.19625 15.4 1.65V4.95H13.75V1.65H1.65V13.75H4.95ZM8.25 22C7.79625 22 7.40781 21.8384 7.08469 21.5153C6.76156 21.1922 6.6 20.8037 6.6 20.35V8.25C6.6 7.79625 6.76156 7.40781 7.08469 7.08469C7.40781 6.76156 7.79625 6.6 8.25 6.6H20.35C20.8037 6.6 21.1922 6.76156 21.5153 7.08469C21.8384 7.40781 22 7.79625 22 8.25V20.35C22 20.8037 21.8384 21.1922 21.5153 21.5153C21.1922 21.8384 20.8037 22 20.35 22H8.25ZM8.25 20.35H20.35V8.25H8.25V20.35Z" fill="#CCCCCC"/>
</svg>
