<svg width="169" height="31" viewBox="0 0 169 31" fill="none" xmlns="http://www.w3.org/2000/svg">
<g clip-path="url(#clip0_7_553)">
<path d="M49.731 16.222C49.731 17.1574 49.5163 18.016 49.087 18.798C48.6577 19.5647 47.9983 20.1857 47.109 20.661C46.2197 21.1364 45.1157 21.374 43.797 21.374H41.359V27.17H37.426V11.024H43.797C45.085 11.024 46.1737 11.2464 47.063 11.691C47.9523 12.1357 48.6193 12.749 49.064 13.531C49.5087 14.313 49.731 15.21 49.731 16.222ZM43.498 18.246C44.2493 18.246 44.809 18.0697 45.177 17.717C45.545 17.3644 45.729 16.866 45.729 16.222C45.729 15.578 45.545 15.0797 45.177 14.727C44.809 14.3744 44.2493 14.198 43.498 14.198H41.359V18.246H43.498ZM53.7565 13.002C53.0665 13.002 52.4992 12.8027 52.0545 12.404C51.6252 11.99 51.4105 11.484 51.4105 10.886C51.4105 10.2727 51.6252 9.76671 52.0545 9.36804C52.4992 8.95404 53.0665 8.74704 53.7565 8.74704C54.4312 8.74704 54.9832 8.95404 55.4125 9.36804C55.8572 9.76671 56.0795 10.2727 56.0795 10.886C56.0795 11.484 55.8572 11.99 55.4125 12.404C54.9832 12.8027 54.4312 13.002 53.7565 13.002ZM55.7115 14.336V27.17H51.7785V14.336H55.7115ZM66.1517 27.17L63.6907 23.605L61.6207 27.17H57.3657L61.5977 20.615L57.2507 14.336H61.6667L64.1277 17.878L66.1977 14.336H70.4527L66.1517 20.799L70.5677 27.17H66.1517ZM84.1812 20.546C84.1812 20.914 84.1582 21.2974 84.1122 21.696H75.2112C75.2726 22.4934 75.5256 23.1067 75.9702 23.536C76.4302 23.95 76.9899 24.157 77.6492 24.157C78.6306 24.157 79.3129 23.743 79.6962 22.915H83.8822C83.6676 23.7584 83.2766 24.5174 82.7092 25.192C82.1572 25.8667 81.4596 26.3957 80.6162 26.779C79.7729 27.1624 78.8299 27.354 77.7872 27.354C76.5299 27.354 75.4106 27.0857 74.4292 26.549C73.4479 26.0124 72.6812 25.2457 72.1292 24.249C71.5772 23.2524 71.3012 22.087 71.3012 20.753C71.3012 19.419 71.5696 18.2537 72.1062 17.257C72.6582 16.2604 73.4249 15.4937 74.4062 14.957C75.3876 14.4204 76.5146 14.152 77.7872 14.152C79.0292 14.152 80.1332 14.4127 81.0992 14.934C82.0652 15.4554 82.8166 16.199 83.3532 17.165C83.9052 18.131 84.1812 19.258 84.1812 20.546ZM80.1562 19.511C80.1562 18.8364 79.9262 18.2997 79.4662 17.901C79.0062 17.5024 78.4312 17.303 77.7412 17.303C77.0819 17.303 76.5222 17.4947 76.0622 17.878C75.6176 18.2614 75.3416 18.8057 75.2342 19.511H80.1562ZM90.1891 10.15V27.17H86.2561V10.15H90.1891ZM98.2603 27.354C97.1409 27.354 96.1443 27.1624 95.2703 26.779C94.3963 26.3957 93.7063 25.8744 93.2003 25.215C92.6943 24.5404 92.4106 23.789 92.3493 22.961H96.2363C96.2823 23.4057 96.4893 23.766 96.8573 24.042C97.2253 24.318 97.6776 24.456 98.2143 24.456C98.7049 24.456 99.0806 24.364 99.3413 24.18C99.6173 23.9807 99.7553 23.7277 99.7553 23.421C99.7553 23.053 99.5636 22.7847 99.1803 22.616C98.7969 22.432 98.1759 22.2327 97.3173 22.018C96.3973 21.8034 95.6306 21.581 95.0173 21.351C94.4039 21.1057 93.8749 20.73 93.4303 20.224C92.9856 19.7027 92.7633 19.005 92.7633 18.131C92.7633 17.395 92.9626 16.728 93.3613 16.13C93.7753 15.5167 94.3733 15.0337 95.1553 14.681C95.9526 14.3284 96.8956 14.152 97.9843 14.152C99.5943 14.152 100.859 14.5507 101.779 15.348C102.715 16.1454 103.251 17.2034 103.389 18.522H99.7553C99.6939 18.0774 99.4946 17.7247 99.1573 17.464C98.8353 17.2034 98.4059 17.073 97.8693 17.073C97.4093 17.073 97.0566 17.165 96.8113 17.349C96.5659 17.5177 96.4433 17.7554 96.4433 18.062C96.4433 18.43 96.6349 18.706 97.0183 18.89C97.4169 19.074 98.0303 19.258 98.8583 19.442C99.8089 19.6874 100.583 19.9327 101.181 20.178C101.779 20.408 102.301 20.7914 102.745 21.328C103.205 21.8494 103.443 22.5547 103.458 23.444C103.458 24.1954 103.244 24.87 102.814 25.468C102.4 26.0507 101.795 26.5107 100.997 26.848C100.215 27.1854 99.3029 27.354 98.2603 27.354Z" fill="#0077B6"/>
<path d="M120.858 27.17H118.236L110.347 15.233V27.17H107.725V11.162H110.347L118.236 23.076V11.162H120.858V27.17ZM135.916 20.523C135.916 20.9984 135.886 21.4277 135.824 21.811H126.141C126.218 22.823 126.594 23.6357 127.268 24.249C127.943 24.8624 128.771 25.169 129.752 25.169C131.163 25.169 132.16 24.5787 132.742 23.398H135.571C135.188 24.5634 134.49 25.5217 133.478 26.273C132.482 27.009 131.24 27.377 129.752 27.377C128.541 27.377 127.452 27.1087 126.486 26.572C125.536 26.02 124.784 25.2534 124.232 24.272C123.696 23.2754 123.427 22.1254 123.427 20.822C123.427 19.5187 123.688 18.3764 124.209 17.395C124.746 16.3984 125.49 15.6317 126.44 15.095C127.406 14.5584 128.51 14.29 129.752 14.29C130.948 14.29 132.014 14.5507 132.949 15.072C133.885 15.5934 134.613 16.3294 135.134 17.28C135.656 18.2154 135.916 19.2964 135.916 20.523ZM133.179 19.695C133.164 18.729 132.819 17.9547 132.144 17.372C131.47 16.7894 130.634 16.498 129.637 16.498C128.733 16.498 127.958 16.7894 127.314 17.372C126.67 17.9394 126.287 18.7137 126.164 19.695H133.179ZM155.516 14.497L151.583 27.17H148.823L146.27 17.809L143.717 27.17H140.957L137.001 14.497H139.669L142.314 24.686L145.005 14.497H147.742L150.318 24.64L152.94 14.497H155.516ZM162.076 27.377C161.079 27.377 160.182 27.2007 159.385 26.848C158.603 26.48 157.982 25.9894 157.522 25.376C157.062 24.7474 156.817 24.0497 156.786 23.283H159.5C159.546 23.8197 159.799 24.272 160.259 24.64C160.734 24.9927 161.325 25.169 162.03 25.169C162.766 25.169 163.333 25.031 163.732 24.755C164.146 24.4637 164.353 24.0957 164.353 23.651C164.353 23.1757 164.123 22.823 163.663 22.593C163.218 22.363 162.505 22.11 161.524 21.834C160.573 21.5734 159.799 21.3204 159.201 21.075C158.603 20.8297 158.082 20.454 157.637 19.948C157.208 19.442 156.993 18.775 156.993 17.947C156.993 17.2724 157.192 16.659 157.591 16.107C157.99 15.5397 158.557 15.095 159.293 14.773C160.044 14.451 160.903 14.29 161.869 14.29C163.31 14.29 164.468 14.658 165.342 15.394C166.231 16.1147 166.707 17.1037 166.768 18.361H164.146C164.1 17.7937 163.87 17.3414 163.456 17.004C163.042 16.6667 162.482 16.498 161.777 16.498C161.087 16.498 160.558 16.6284 160.19 16.889C159.822 17.1497 159.638 17.4947 159.638 17.924C159.638 18.2614 159.761 18.545 160.006 18.775C160.251 19.005 160.55 19.189 160.903 19.327C161.256 19.4497 161.777 19.6107 162.467 19.81C163.387 20.0554 164.138 20.3084 164.721 20.569C165.319 20.8144 165.833 21.1824 166.262 21.673C166.691 22.1637 166.914 22.8154 166.929 23.628C166.929 24.3487 166.73 24.9927 166.331 25.56C165.932 26.1274 165.365 26.572 164.629 26.894C163.908 27.216 163.057 27.377 162.076 27.377Z" fill="black"/>
<path fill-rule="evenodd" clip-rule="evenodd" d="M8.76385 15.0721C8.76385 16.729 10.1168 18.0721 11.7736 18.0721C13.5679 18.0721 14.8413 16.7988 14.8413 14.9466V14.8308C14.8413 12.9787 13.5679 11.7053 11.7736 11.7053C10.1168 11.7053 8.76385 13.0484 8.76385 14.7053V15.0721ZM26.6294 8.9552C26.6294 7.88341 26.0576 6.89303 25.1294 6.35713L14.8147 0.40192C13.8865 -0.13398 12.7429 -0.13398 11.8147 0.40192L1.5 6.35713C0.5718 6.89302 0 7.88341 0 8.9552V21.0953C0 22.025 0.49596 22.884 1.30105 23.3488C3.03579 24.3504 5.20421 23.0984 5.20421 21.0953V11.5797C5.20421 9.92288 6.54735 8.57973 8.20421 8.57973H12.3524C15.8253 8.57973 18.4299 10.9818 18.4299 14.744V15.0334C18.4299 18.8246 15.8253 21.2266 12.3524 21.2266H11.7639C10.107 21.2266 8.76385 22.5698 8.76385 24.2266V25.9254C8.76385 26.9972 9.33565 27.9876 10.2639 28.5235L11.8147 29.4189C12.7429 29.9548 13.8865 29.9548 14.8147 29.4189L25.1294 23.4637C26.0576 22.9278 26.6294 21.9374 26.6294 20.8656V8.9552Z" fill="#0077B6"/>
</g>
<defs>
<clipPath id="clip0_7_553">
<rect width="169" height="30.17" fill="white"/>
</clipPath>
</defs>
</svg>
