<svg width="192" height="69" viewBox="0 0 192 69" fill="none" xmlns="http://www.w3.org/2000/svg">
<path fill-rule="evenodd" clip-rule="evenodd" d="M18.5557 33.1639C18.5557 35.9253 20.7943 38.1639 23.5557 38.1639H24.9284C28.7274 38.1639 31.4235 35.4678 31.4235 31.5462V31.3011C31.4235 27.3795 28.7274 24.6834 24.9284 24.6834H23.5557C20.7943 24.6834 18.5557 26.9219 18.5557 29.6834V33.1639ZM56.3826 19.2348C56.3826 16.7339 55.0484 14.423 52.8826 13.1726L31.6913 0.937822C29.5255 -0.312607 26.8571 -0.312607 24.6913 0.937822L3.5 13.1726C1.33419 14.423 0 16.7339 0 19.2348V44.5649C0 46.5333 1.05009 48.3521 2.75472 49.3363C6.42768 51.4568 11.0189 48.8061 11.0189 44.5649V23.0656C11.0189 20.3042 13.2575 18.0656 16.0189 18.0656H26.1539C33.5069 18.0656 39.0217 23.1515 39.0217 31.1173V31.73C39.0217 39.7571 33.5069 44.8429 26.1539 44.8429H23.5557C20.7943 44.8429 18.5557 47.0815 18.5557 49.8429V54.4175C18.5557 56.9184 19.8899 59.2293 22.0557 60.4797L24.6913 62.0013C26.8571 63.2518 29.5255 63.2518 31.6913 62.0013L52.8826 49.7665C55.0484 48.5161 56.3826 46.2052 56.3826 43.7044V19.2348Z" fill="#0077B6"/>
<path d="M180.578 15.069V16.031H178.108V24.13H176.925V16.031H174.442V15.069H180.578ZM190.575 15.134V24.13H189.392V17.422L186.402 24.13H185.57L182.567 17.409V24.13H181.384V15.134H182.658L185.986 22.57L189.314 15.134H190.575Z" fill="#073B4C"/>
<path d="M91.12 33.72C91.12 35.2133 90.76 36.6133 90.04 37.92C89.3467 39.2267 88.24 40.28 86.72 41.08C85.2267 41.88 83.3333 42.28 81.04 42.28H76.36V53H70.76V25.08H81.04C83.2 25.08 85.04 25.4533 86.56 26.2C88.08 26.9467 89.2133 27.9733 89.96 29.28C90.7333 30.5867 91.12 32.0667 91.12 33.72ZM80.8 37.76C82.3467 37.76 83.4933 37.4133 84.24 36.72C84.9867 36 85.36 35 85.36 33.72C85.36 31 83.84 29.64 80.8 29.64H76.36V37.76H80.8ZM95.9359 28.2C94.9493 28.2 94.1226 27.8933 93.4559 27.28C92.8159 26.64 92.4959 25.8533 92.4959 24.92C92.4959 23.9867 92.8159 23.2133 93.4559 22.6C94.1226 21.96 94.9493 21.64 95.9359 21.64C96.9226 21.64 97.7359 21.96 98.3759 22.6C99.0426 23.2133 99.3759 23.9867 99.3759 24.92C99.3759 25.8533 99.0426 26.64 98.3759 27.28C97.7359 27.8933 96.9226 28.2 95.9359 28.2ZM98.6959 30.84V53H93.0959V30.84H98.6959ZM114.469 53L109.909 46.12L105.869 53H99.8688L107.109 41.88L99.7888 30.84H106.109L110.629 37.68L114.709 30.84H120.709L113.429 41.88L120.789 53H114.469ZM142.43 41.44C142.43 42.24 142.377 42.96 142.27 43.6H126.07C126.204 45.2 126.764 46.4533 127.75 47.36C128.737 48.2667 129.95 48.72 131.39 48.72C133.47 48.72 134.95 47.8267 135.83 46.04H141.87C141.23 48.1733 140.004 49.9333 138.19 51.32C136.377 52.68 134.15 53.36 131.51 53.36C129.377 53.36 127.457 52.8933 125.75 51.96C124.07 51 122.75 49.6533 121.79 47.92C120.857 46.1867 120.39 44.1867 120.39 41.92C120.39 39.6267 120.857 37.6133 121.79 35.88C122.724 34.1467 124.03 32.8133 125.71 31.88C127.39 30.9467 129.324 30.48 131.51 30.48C133.617 30.48 135.497 30.9333 137.15 31.84C138.83 32.7467 140.124 34.04 141.03 35.72C141.964 37.3733 142.43 39.28 142.43 41.44ZM136.63 39.84C136.604 38.4 136.084 37.2533 135.07 36.4C134.057 35.52 132.817 35.08 131.35 35.08C129.964 35.08 128.79 35.5067 127.83 36.36C126.897 37.1867 126.324 38.3467 126.11 39.84H136.63ZM150.118 23.4V53H144.518V23.4H150.118ZM162.131 53.36C160.317 53.36 158.691 53.04 157.251 52.4C155.811 51.7333 154.664 50.84 153.811 49.72C152.984 48.6 152.531 47.36 152.451 46H158.091C158.197 46.8533 158.611 47.56 159.331 48.12C160.077 48.68 160.997 48.96 162.091 48.96C163.157 48.96 163.984 48.7467 164.571 48.32C165.184 47.8933 165.491 47.3467 165.491 46.68C165.491 45.96 165.117 45.4267 164.371 45.08C163.651 44.7067 162.491 44.3067 160.891 43.88C159.237 43.48 157.877 43.0667 156.811 42.64C155.771 42.2133 154.864 41.56 154.091 40.68C153.344 39.8 152.971 38.6133 152.971 37.12C152.971 35.8933 153.317 34.7733 154.011 33.76C154.731 32.7467 155.744 31.9467 157.051 31.36C158.384 30.7733 159.944 30.48 161.731 30.48C164.371 30.48 166.477 31.1467 168.051 32.48C169.624 33.7867 170.491 35.56 170.651 37.8H165.291C165.211 36.92 164.837 36.2267 164.171 35.72C163.531 35.1867 162.664 34.92 161.571 34.92C160.557 34.92 159.771 35.1067 159.211 35.48C158.677 35.8533 158.411 36.3733 158.411 37.04C158.411 37.7867 158.784 38.36 159.531 38.76C160.277 39.1333 161.437 39.52 163.011 39.92C164.611 40.32 165.931 40.7333 166.971 41.16C168.011 41.5867 168.904 42.2533 169.651 43.16C170.424 44.04 170.824 45.2133 170.851 46.68C170.851 47.96 170.491 49.1067 169.771 50.12C169.077 51.1333 168.064 51.9333 166.731 52.52C165.424 53.08 163.891 53.36 162.131 53.36Z" fill="#073B4C"/>
</svg>
