<svg width="22" height="22" viewBox="0 0 22 22" fill="none" xmlns="http://www.w3.org/2000/svg">
<path d="M8.47 22L7.92 18.535C7.57167 18.4067 7.205 18.2325 6.82 18.0125C6.435 17.7925 6.09583 17.5633 5.8025 17.325L2.5575 18.81L0 14.3L2.97 12.1275C2.93333 11.9625 2.91042 11.7746 2.90125 11.5638C2.89208 11.3529 2.8875 11.165 2.8875 11C2.8875 10.835 2.89208 10.6471 2.90125 10.4362C2.91042 10.2254 2.93333 10.0375 2.97 9.8725L0 7.7L2.5575 3.19L5.8025 4.675C6.09583 4.43667 6.435 4.2075 6.82 3.9875C7.205 3.7675 7.57167 3.6025 7.92 3.4925L8.47 0H13.53L14.08 3.465C14.4283 3.59333 14.7996 3.76292 15.1938 3.97375C15.5879 4.18458 15.9225 4.41833 16.1975 4.675L19.4425 3.19L22 7.7L19.03 9.8175C19.0667 10.0008 19.0896 10.1979 19.0987 10.4087C19.1079 10.6196 19.1125 10.8167 19.1125 11C19.1125 11.1833 19.1079 11.3758 19.0987 11.5775C19.0896 11.7792 19.0667 11.9717 19.03 12.155L22 14.3L19.4425 18.81L16.1975 17.325C15.9042 17.5633 15.5696 17.7971 15.1938 18.0263C14.8179 18.2554 14.4467 18.425 14.08 18.535L13.53 22H8.47ZM11 14.575C11.99 14.575 12.8333 14.2267 13.53 13.53C14.2267 12.8333 14.575 11.99 14.575 11C14.575 10.01 14.2267 9.16667 13.53 8.47C12.8333 7.77333 11.99 7.425 11 7.425C10.01 7.425 9.16667 7.77333 8.47 8.47C7.77333 9.16667 7.425 10.01 7.425 11C7.425 11.99 7.77333 12.8333 8.47 13.53C9.16667 14.2267 10.01 14.575 11 14.575ZM11 12.925C10.4683 12.925 10.0146 12.7371 9.63875 12.3612C9.26292 11.9854 9.075 11.5317 9.075 11C9.075 10.4683 9.26292 10.0146 9.63875 9.63875C10.0146 9.26292 10.4683 9.075 11 9.075C11.5317 9.075 11.9854 9.26292 12.3612 9.63875C12.7371 10.0146 12.925 10.4683 12.925 11C12.925 11.5317 12.7371 11.9854 12.3612 12.3612C11.9854 12.7371 11.5317 12.925 11 12.925ZM9.79 20.35H12.21L12.595 17.27C13.2 17.1233 13.7729 16.8942 14.3138 16.5825C14.8546 16.2708 15.345 15.895 15.785 15.455L18.7 16.72L19.8 14.74L17.215 12.8425C17.2883 12.5308 17.3479 12.2238 17.3937 11.9213C17.4396 11.6187 17.4625 11.3117 17.4625 11C17.4625 10.6883 17.4442 10.3813 17.4075 10.0787C17.3708 9.77625 17.3067 9.46917 17.215 9.1575L19.8 7.26L18.7 5.28L15.785 6.545C15.3633 6.06833 14.8867 5.66958 14.355 5.34875C13.8233 5.02792 13.2367 4.82167 12.595 4.73L12.21 1.65H9.79L9.405 4.73C8.78167 4.85833 8.19958 5.07833 7.65875 5.39C7.11792 5.70167 6.63667 6.08667 6.215 6.545L3.3 5.28L2.2 7.26L4.785 9.1575C4.71167 9.46917 4.65208 9.77625 4.60625 10.0787C4.56042 10.3813 4.5375 10.6883 4.5375 11C4.5375 11.3117 4.56042 11.6187 4.60625 11.9213C4.65208 12.2238 4.71167 12.5308 4.785 12.8425L2.2 14.74L3.3 16.72L6.215 15.455C6.655 15.895 7.14542 16.2708 7.68625 16.5825C8.22708 16.8942 8.8 17.1233 9.405 17.27L9.79 20.35Z" fill="#CCCCCC"/>
</svg>
