<svg width="15" height="15" viewBox="0 0 15 15" fill="none" xmlns="http://www.w3.org/2000/svg">
<path d="M7.33333 6.875C6.325 6.875 5.5 6.55417 4.85833 5.9125C4.21667 5.27083 3.89583 4.44583 3.89583 3.4375C3.89583 2.42917 4.21667 1.60417 4.85833 0.9625C5.5 0.320833 6.325 0 7.33333 0C8.34167 0 9.16667 0.320833 9.80833 0.9625C10.45 1.60417 10.7708 2.42917 10.7708 3.4375C10.7708 4.44583 10.45 5.27083 9.80833 5.9125C9.16667 6.55417 8.34167 6.875 7.33333 6.875ZM0 14.2313V12.0771C0 11.4965 0.145139 11 0.435417 10.5875C0.725694 10.175 1.1 9.86181 1.55833 9.64792C2.58194 9.18958 3.56354 8.84583 4.50313 8.61667C5.44271 8.3875 6.38611 8.27292 7.33333 8.27292C8.28056 8.27292 9.22014 8.39132 10.1521 8.62813C11.084 8.86493 12.0612 9.20634 13.0836 9.65236C13.5618 9.86818 13.9452 10.1811 14.2338 10.5912C14.5224 11.0012 14.6667 11.4965 14.6667 12.0771V14.2313H0ZM1.375 12.8562H13.2917V12.0771C13.2917 11.8326 13.2191 11.5997 13.074 11.3781C12.9288 11.1566 12.7493 10.9924 12.5354 10.8854C11.5576 10.4118 10.6639 10.0872 9.85417 9.91146C9.04445 9.73576 8.20417 9.64792 7.33333 9.64792C6.4625 9.64792 5.61458 9.73576 4.78958 9.91146C3.96458 10.0872 3.07083 10.4118 2.10833 10.8854C1.89444 10.9924 1.71875 11.1566 1.58125 11.3781C1.44375 11.5997 1.375 11.8326 1.375 12.0771V12.8562ZM7.33333 5.5C7.92917 5.5 8.42188 5.30521 8.81146 4.91563C9.20104 4.52604 9.39583 4.03333 9.39583 3.4375C9.39583 2.84167 9.20104 2.34896 8.81146 1.95938C8.42188 1.56979 7.92917 1.375 7.33333 1.375C6.7375 1.375 6.24479 1.56979 5.85521 1.95938C5.46563 2.34896 5.27083 2.84167 5.27083 3.4375C5.27083 4.03333 5.46563 4.52604 5.85521 4.91563C6.24479 5.30521 6.7375 5.5 7.33333 5.5Z" fill="#0077B6"/>
</svg>
